<?xml version="1.0" standalone="no"?>
<!DOCTYPE svg PUBLIC "-//W3C//DTD SVG 20010904//EN"
 "http://www.w3.org/TR/2001/REC-SVG-20010904/DTD/svg10.dtd">
<svg version="1.0" xmlns="http://www.w3.org/2000/svg"
 width="936.000000pt" height="833.000000pt" viewBox="0 0 936.000000 833.000000"
 preserveAspectRatio="xMidYMid meet">

<g transform="translate(0.000000,833.000000) scale(0.100000,-0.100000)"
fill="#FFFFFF" stroke="none">
<path d="M6417 8319 c-174 -24 -377 -89 -584 -189 -358 -172 -670 -393 -1078
-764 l-76 -69 -57 54 c-435 419 -992 770 -1422 898 -186 56 -252 66 -435 65
-155 -1 -178 -3 -258 -27 -200 -61 -327 -157 -451 -342 -222 -329 -297 -888
-211 -1566 17 -137 66 -403 99 -544 21 -90 22 -101 7 -107 -9 -3 -108 -36
-221 -72 -269 -87 -412 -145 -655 -266 -388 -192 -687 -419 -873 -665 -62 -82
-154 -264 -177 -350 -23 -86 -30 -248 -15 -331 41 -222 166 -430 387 -644 311
-302 776 -561 1363 -757 107 -36 196 -66 198 -67 1 -2 -16 -87 -38 -190 -77
-357 -110 -641 -110 -956 0 -300 31 -524 102 -740 93 -283 255 -493 460 -593
133 -66 188 -78 370 -84 121 -4 180 -1 260 12 471 79 1039 398 1579 887 l115
105 105 -95 c414 -377 803 -639 1169 -785 889 -356 1447 0 1572 1003 19 155
16 588 -6 775 -21 181 -56 394 -91 550 -15 64 -25 121 -23 126 2 6 87 39 188
73 599 203 1051 453 1363 755 136 131 224 247 287 376 127 258 130 482 12 727
-61 127 -125 219 -233 332 -310 328 -861 630 -1516 832 -68 21 -123 42 -123
46 0 5 18 98 39 206 73 363 101 618 101 928 0 233 -12 370 -46 544 -99 498
-328 798 -679 891 -93 24 -291 33 -398 18z m271 -399 c118 -22 225 -106 295
-230 49 -88 102 -252 129 -396 19 -106 22 -153 22 -429 1 -386 -15 -516 -122
-1014 -5 -27 4 -27 -187 14 -247 52 -729 126 -993 151 l-73 7 -188 251 c-185
246 -372 476 -525 646 -42 47 -76 88 -76 92 0 12 222 210 352 315 238 191 443
325 663 433 282 138 526 194 703 160z m-3754 -15 c383 -67 894 -371 1411 -838
l59 -54 -85 -94 c-191 -210 -396 -462 -602 -740 l-115 -156 -79 -7 c-262 -24
-760 -99 -1023 -156 -74 -15 -138 -25 -142 -22 -9 10 -64 257 -87 397 -87 512
-78 995 23 1292 73 214 182 337 336 379 62 17 201 17 304 -1z m1853 -1297
c164 -187 303 -357 415 -508 l27 -35 -549 0 -549 0 27 35 c76 101 273 341 373
454 63 71 120 137 128 147 7 11 17 19 22 19 4 0 52 -51 106 -112z m428 -948
c105 -5 219 -12 256 -16 l65 -6 121 -186 c158 -244 338 -546 479 -804 133
-242 244 -462 244 -482 0 -46 -377 -736 -593 -1086 -204 -330 -245 -387 -280
-394 -18 -3 -149 -10 -291 -17 -251 -11 -1059 -7 -1288 7 l-97 6 -119 182
c-197 300 -327 517 -487 811 -119 219 -245 470 -245 490 0 34 267 540 443 840
96 163 201 331 336 537 l64 97 61 6 c233 23 1001 32 1331 15z m-1911 -82 c-4
-7 -40 -65 -79 -128 -107 -172 -240 -402 -358 -618 -58 -106 -108 -189 -111
-184 -31 50 -286 751 -286 786 0 17 288 75 625 126 228 34 218 33 209 18z
m2981 -24 c202 -30 396 -65 522 -94 l92 -22 -66 -191 c-59 -176 -159 -440
-213 -562 l-21 -49 -46 84 c-97 181 -305 543 -402 699 -55 90 -101 165 -101
167 0 3 14 1 235 -32z m-4180 -301 c71 -228 239 -667 360 -940 l66 -149 -42
-95 c-141 -319 -330 -809 -390 -1012 -12 -44 -28 -81 -35 -84 -8 -3 -78 16
-156 42 -669 220 -1183 539 -1402 868 -138 208 -139 371 -3 575 187 279 662
580 1222 775 184 64 317 106 336 107 12 0 24 -24 44 -87z m5380 25 c533 -175
982 -418 1235 -669 316 -314 315 -566 -4 -884 -262 -261 -703 -505 -1246 -686
-79 -27 -149 -49 -155 -49 -6 0 -32 63 -58 140 -90 267 -217 584 -360 898
l-66 144 81 181 c130 292 305 752 353 924 21 74 -3 74 220 1z m-751 -1888 c76
-190 176 -472 176 -494 0 -14 -92 -36 -336 -81 -176 -33 -482 -77 -505 -73
-15 3 -6 22 52 118 105 170 276 466 359 620 40 74 84 155 98 179 l25 44 29
-64 c16 -35 62 -147 102 -249z m-3841 60 c100 -184 255 -448 358 -612 41 -64
63 -108 55 -108 -91 0 -818 121 -839 139 -12 11 157 494 249 714 15 34 31 73
36 87 10 25 10 25 30 -15 11 -22 61 -114 111 -205z m4160 -1067 c33 -144 71
-376 89 -538 17 -156 17 -561 0 -685 -52 -373 -176 -629 -347 -713 -242 -120
-680 2 -1165 326 -187 125 -413 305 -574 458 l-80 75 129 150 c196 227 399
488 585 749 35 50 65 92 66 93 1 2 99 14 216 27 339 38 687 93 938 150 58 12
108 23 111 24 3 1 18 -52 32 -116z m-4577 72 c259 -54 676 -114 1012 -146
l123 -12 131 -176 c174 -234 332 -430 508 -629 80 -91 149 -170 154 -176 6 -8
-11 -31 -50 -68 -381 -361 -826 -648 -1194 -771 -143 -48 -252 -67 -381 -67
-216 0 -336 75 -434 270 -168 334 -181 952 -34 1625 32 150 39 175 43 175 2 0
57 -11 122 -25z m2756 -200 c-12 -21 -210 -275 -296 -380 -120 -147 -237 -276
-246 -273 -28 10 -550 636 -550 658 0 3 247 5 549 5 363 0 547 -3 543 -10z"/>
<path d="M4547 5000 c-359 -57 -651 -361 -697 -727 -51 -403 206 -790 601
-903 106 -31 280 -38 390 -16 303 62 543 279 639 581 34 108 39 310 11 430
-72 300 -301 536 -596 615 -92 24 -260 34 -348 20z m300 -132 c-4 -24 -42
-155 -87 -293 -44 -137 -83 -265 -86 -282 -8 -43 -4 -43 179 1 240 58 239 58
208 -2 -52 -102 -460 -633 -601 -782 l-61 -65 4 35 c3 19 46 141 95 270 50
129 92 249 94 265 4 37 5 37 -194 -7 -81 -17 -151 -29 -154 -25 -4 4 1 26 12
49 48 108 350 580 496 775 59 79 77 98 97 102 2 1 1 -18 -2 -41z"/>
</g>
</svg>
